<svg width="32" height="32" viewBox="0 0 32 32" fill="none" xmlns="http://www.w3.org/2000/svg"><path fill-rule="evenodd" clip-rule="evenodd" d="M16 2.667C8.636 2.667 2.667 8.636 2.667 16c0 2.357.612 4.575 1.685 6.5L2.667 29.333l7.001-1.643A13.27 13.27 0 0 0 16 29.333C23.364 29.333 29.333 23.364 29.333 16S23.364 2.667 16 2.667zm-3.55 7.247c.319 0 .65-.013.928.013.276.026.626.064 1.018 1.018.42.997.999 2.522 1.087 2.704.087.182.169.421.026.696-.143.276-.221.448-.453.696-.234.247-.49.553-.7.741-.234.21-.476.435-.21.871.265.434 1.18 1.95 2.535 3.16 1.744 1.557 3.22 2.041 3.677 2.27.458.232.726.197 1.001-.103.276-.298 1.16-1.34 1.47-1.799.302-.46.611-.382 1.024-.225.418.157 2.655 1.251 3.105 1.479.45.227.751.343.86.532.108.19.108 1.103-.319 2.166-.426 1.064-2.453 2.038-3.327 2.171-.785.12-1.778.171-2.866-.18-.66-.215-1.506-.493-2.59-.962-4.557-1.967-7.535-6.555-7.762-6.857-.227-.302-1.857-2.466-1.857-4.706 0-2.241 1.175-3.34 1.593-3.796.418-.456.91-.572 1.214-.572z" fill="#FEAE00"/></svg>
